# xmcd
#
# Track frame offsets: 
#        150
#        20181
#        36917
#        56115
#        65741
#        82182
#        99524
#        115507
#        136183
#        155053
#        175084
#        189028
#
# Disc length: 2792 seconds
#
# Revision: 0
# Processed by: cddbd v1.5.2PL0 Copyright (c) Steve Scherf et al.
# Submitted via: ExactAudioCopyFreeDBPlugin 1.0
#
DISCID=a20ae60c
DTITLE=Rick Strickland - Something Smooth
DYEAR=2006
DGENRE=Beach
TTITLE0=I Believe
TTITLE1=I Miss You
TTITLE2=One Step Closer
TTITLE3=She Cain't Fix Grits
TTITLE4=Wlcoming Her Back Home
TTITLE5=Party 'Til The Break Of Dawn
TTITLE6=The Devil Made Me Do It
TTITLE7=Something Smooth
TTITLE8=We've Got It Made
TTITLE9=Counting The Days
TTITLE10=Laughing All The Way To The Bank
TTITLE11=My Heart Belongs To You
EXTD=
EXTT0=
EXTT1=
EXTT2=
EXTT3=
EXTT4=
EXTT5=
EXTT6=
EXTT7=
EXTT8=
EXTT9=
EXTT10=
EXTT11=
PLAYORDER=
